<mxfile host="app.diagrams.net" modified="2023-07-11T14:23:19.017Z" agent="Mozilla/5.0 (Windows NT 10.0; Win64; x64) AppleWebKit/537.36 (KHTML, like Gecko) Chrome/114.0.0.0 Safari/537.36" etag="apbCCX0NlJZzetwgexOf" version="21.6.1" type="device">
  <diagram name="Page-1" id="90a13364-a465-7bf4-72fc-28e22215d7a0">
    <mxGraphModel dx="1687" dy="927" grid="1" gridSize="10" guides="1" tooltips="1" connect="1" arrows="1" fold="1" page="1" pageScale="1.5" pageWidth="1169" pageHeight="826" background="none" math="0" shadow="0">
      <root>
        <mxCell id="0" style=";html=1;" />
        <mxCell id="1" style=";html=1;" parent="0" />
        <mxCell id="3a17f1ce550125da-1" value="Agent" style="whiteSpace=wrap;html=1;shadow=1;fontSize=20;fillColor=#f5f5f5;strokeColor=#666666;strokeWidth=2;dashed=1;" parent="1" vertex="1">
          <mxGeometry x="797" y="344" width="150" height="60" as="geometry" />
        </mxCell>
        <mxCell id="3a17f1ce550125da-14" style="edgeStyle=elbowEdgeStyle;rounded=0;html=1;startArrow=classic;startFill=1;jettySize=auto;orthogonalLoop=1;fontSize=18;elbow=vertical;" parent="1" edge="1">
          <mxGeometry relative="1" as="geometry">
            <mxPoint x="944.5" y="859.4164705882354" as="sourcePoint" />
            <mxPoint x="1024.5" y="859.8870588235295" as="targetPoint" />
          </mxGeometry>
        </mxCell>
        <mxCell id="3a17f1ce550125da-17" style="edgeStyle=elbowEdgeStyle;rounded=0;html=1;startArrow=none;startFill=0;jettySize=auto;orthogonalLoop=1;fontSize=18;" parent="1" source="3a17f1ce550125da-10" target="3a17f1ce550125da-2" edge="1">
          <mxGeometry relative="1" as="geometry">
            <Array as="points">
              <mxPoint x="907" y="754" />
            </Array>
          </mxGeometry>
        </mxCell>
        <mxCell id="3a17f1ce550125da-2" value="Agent&lt;br&gt;Process" style="whiteSpace=wrap;html=1;shadow=1;fontSize=18;fillColor=#f5f5f5;strokeColor=#666666;" parent="1" vertex="1">
          <mxGeometry x="787" y="454" width="170" height="280" as="geometry" />
        </mxCell>
        <mxCell id="hZsDnf50c7OHJV3UifF4-1" style="rounded=0;orthogonalLoop=1;jettySize=auto;html=1;entryX=1.018;entryY=0.072;entryDx=0;entryDy=0;entryPerimeter=0;endArrow=classic;endFill=1;startArrow=classic;startFill=1;" edge="1" parent="1" source="3a17f1ce550125da-4">
          <mxGeometry relative="1" as="geometry">
            <mxPoint x="947.5600000000004" y="790.1599999999999" as="targetPoint" />
          </mxGeometry>
        </mxCell>
        <mxCell id="3a17f1ce550125da-4" value="MetricsServer" style="whiteSpace=wrap;html=1;shadow=1;fontSize=18;fillColor=#f5f5f5;strokeColor=#666666;" parent="1" vertex="1">
          <mxGeometry x="1024.5" y="760" width="120" height="60" as="geometry" />
        </mxCell>
        <mxCell id="3a17f1ce550125da-5" value="Star" style="whiteSpace=wrap;html=1;shadow=1;fontSize=18;fillColor=#f5f5f5;strokeColor=#666666;" parent="1" vertex="1">
          <mxGeometry x="1024.5" y="830" width="120" height="60" as="geometry" />
        </mxCell>
        <mxCell id="3a17f1ce550125da-20" style="edgeStyle=elbowEdgeStyle;rounded=0;html=1;startArrow=none;startFill=0;jettySize=auto;orthogonalLoop=1;fontSize=18;elbow=vertical;" parent="1" source="3a17f1ce550125da-8" edge="1">
          <mxGeometry relative="1" as="geometry">
            <Array as="points">
              <mxPoint x="769.5" y="790" />
            </Array>
            <mxPoint x="799.5" y="790" as="targetPoint" />
          </mxGeometry>
        </mxCell>
        <mxCell id="3a17f1ce550125da-8" value="Fluent-bit&lt;br&gt;(Fluentd)" style="whiteSpace=wrap;html=1;shadow=1;fontSize=18;fillColor=#f5f5f5;strokeColor=#666666;" parent="1" vertex="1">
          <mxGeometry x="609.5" y="760" width="120" height="60" as="geometry" />
        </mxCell>
        <mxCell id="3a17f1ce550125da-21" style="edgeStyle=elbowEdgeStyle;rounded=0;html=1;startArrow=none;startFill=0;jettySize=auto;orthogonalLoop=1;fontSize=18;elbow=vertical;entryX=0;entryY=0.75;entryDx=0;entryDy=0;" parent="1" source="3a17f1ce550125da-9" target="3a17f1ce550125da-10" edge="1">
          <mxGeometry relative="1" as="geometry">
            <mxPoint x="799.5" y="939.5882352941178" as="targetPoint" />
          </mxGeometry>
        </mxCell>
        <mxCell id="3a17f1ce550125da-9" value="Prometheus" style="whiteSpace=wrap;html=1;shadow=1;fontSize=18;fillColor=#f5f5f5;strokeColor=#666666;" parent="1" vertex="1">
          <mxGeometry x="609.5" y="830" width="120" height="60" as="geometry" />
        </mxCell>
        <mxCell id="3a17f1ce550125da-10" value="Bridge&lt;br&gt;(ACL, AICL)" style="whiteSpace=wrap;html=1;shadow=1;fontSize=18;fillColor=#f5f5f5;strokeColor=#666666;" parent="1" vertex="1">
          <mxGeometry x="799.5" y="774" width="145" height="120" as="geometry" />
        </mxCell>
        <mxCell id="3a17f1ce550125da-25" style="edgeStyle=elbowEdgeStyle;rounded=0;html=1;startArrow=none;startFill=0;jettySize=auto;orthogonalLoop=1;fontSize=18;" parent="1" edge="1">
          <mxGeometry relative="1" as="geometry">
            <mxPoint x="837" y="734" as="sourcePoint" />
            <mxPoint x="837" y="774" as="targetPoint" />
            <Array as="points">
              <mxPoint x="837" y="754" />
              <mxPoint x="867" y="764" />
            </Array>
          </mxGeometry>
        </mxCell>
      </root>
    </mxGraphModel>
  </diagram>
</mxfile>
